<svg width="438" height="424" viewBox="0 0 438 424" fill="none" xmlns="http://www.w3.org/2000/svg">
<path d="M119.219 46V34.32H122.915C123.693 34.32 124.365 34.464 124.931 34.752C125.507 35.04 125.955 35.4453 126.275 35.968C126.595 36.48 126.755 37.088 126.755 37.792C126.755 38.56 126.557 39.2373 126.163 39.824C125.779 40.4107 125.256 40.8267 124.595 41.072L126.915 46H124.675L122.643 41.36H121.219V46H119.219ZM121.219 39.6H122.915C123.48 39.6 123.923 39.4453 124.243 39.136C124.563 38.8267 124.723 38.4 124.723 37.856C124.723 37.3013 124.563 36.8693 124.243 36.56C123.923 36.24 123.48 36.08 122.915 36.08H121.219V39.6ZM129.484 46V34.32H136.492V36.064H131.452V39.104H135.932V40.832H131.452V44.256H136.492V46H129.484ZM139.798 46V34.32H141.798V44.144H146.758V46H139.798ZM148.784 46L151.728 34.32H154.304L157.264 46H155.216L154.576 43.168H151.472L150.832 46H148.784ZM151.84 41.536H154.208L153.504 38.4C153.386 37.8773 153.285 37.408 153.2 36.992C153.114 36.5653 153.056 36.256 153.024 36.064C152.992 36.256 152.933 36.5653 152.848 36.992C152.773 37.408 152.672 37.872 152.544 38.384L151.84 41.536ZM162.09 46V36.176H159.034V34.32H167.162V36.176H164.106V46H162.09ZM169.811 46V44.24H172.163V36.08H169.811V34.32H176.531V36.08H174.179V44.24H176.531V46H169.811ZM181.949 46L179.005 34.32H181.085L182.845 41.936C182.941 42.3093 183.032 42.7093 183.117 43.136C183.202 43.5627 183.266 43.9093 183.309 44.176C183.352 43.9093 183.41 43.5627 183.485 43.136C183.56 42.7093 183.64 42.304 183.725 41.92L185.469 34.32H187.485L184.541 46H181.949ZM189.927 46V34.32H196.935V36.064H191.895V39.104H196.375V40.832H191.895V44.256H196.935V46H189.927ZM209.898 46V34.32H213.786C214.565 34.32 215.242 34.4693 215.818 34.768C216.405 35.0667 216.858 35.488 217.178 36.032C217.498 36.5653 217.658 37.1947 217.658 37.92C217.658 38.6347 217.493 39.264 217.162 39.808C216.842 40.352 216.394 40.7733 215.818 41.072C215.242 41.3707 214.565 41.52 213.786 41.52H211.898V46H209.898ZM211.898 39.712H213.786C214.341 39.712 214.784 39.552 215.114 39.232C215.456 38.9013 215.626 38.464 215.626 37.92C215.626 37.3653 215.456 36.928 215.114 36.608C214.784 36.288 214.341 36.128 213.786 36.128H211.898V39.712ZM220.148 46V34.32H227.156V36.064H222.116V39.104H226.596V40.832H222.116V44.256H227.156V46H220.148ZM230.03 46V34.32H233.726C234.504 34.32 235.176 34.464 235.742 34.752C236.318 35.04 236.766 35.4453 237.086 35.968C237.406 36.48 237.566 37.088 237.566 37.792C237.566 38.56 237.368 39.2373 236.974 39.824C236.59 40.4107 236.067 40.8267 235.406 41.072L237.726 46H235.486L233.454 41.36H232.03V46H230.03ZM232.03 39.6H233.726C234.291 39.6 234.734 39.4453 235.054 39.136C235.374 38.8267 235.534 38.4 235.534 37.856C235.534 37.3013 235.374 36.8693 235.054 36.56C234.734 36.24 234.291 36.08 233.726 36.08H232.03V39.6ZM240.168 46V34.32H247.432V36.176H242.136V39.296H247.016V41.152H242.168V46H240.168ZM253.761 46.16C253.015 46.16 252.364 46.0213 251.809 45.744C251.265 45.456 250.844 45.056 250.545 44.544C250.257 44.0213 250.113 43.408 250.113 42.704V37.616C250.113 36.912 250.257 36.304 250.545 35.792C250.844 35.2693 251.265 34.8693 251.809 34.592C252.364 34.304 253.015 34.16 253.761 34.16C254.519 34.16 255.169 34.304 255.713 34.592C256.257 34.8693 256.673 35.2693 256.961 35.792C257.26 36.304 257.409 36.9067 257.409 37.6V42.704C257.409 43.408 257.26 44.0213 256.961 44.544C256.673 45.056 256.257 45.456 255.713 45.744C255.169 46.0213 254.519 46.16 253.761 46.16ZM253.761 44.4C254.305 44.4 254.716 44.256 254.993 43.968C255.271 43.6693 255.409 43.248 255.409 42.704V37.616C255.409 37.0613 255.271 36.64 254.993 36.352C254.716 36.064 254.305 35.92 253.761 35.92C253.217 35.92 252.807 36.064 252.529 36.352C252.252 36.64 252.113 37.0613 252.113 37.616V42.704C252.113 43.248 252.252 43.6693 252.529 43.968C252.817 44.256 253.228 44.4 253.761 44.4ZM260.251 46V34.32H263.947C264.726 34.32 265.398 34.464 265.963 34.752C266.539 35.04 266.987 35.4453 267.307 35.968C267.627 36.48 267.787 37.088 267.787 37.792C267.787 38.56 267.59 39.2373 267.195 39.824C266.811 40.4107 266.288 40.8267 265.627 41.072L267.947 46H265.707L263.675 41.36H262.251V46H260.251ZM262.251 39.6H263.947C264.512 39.6 264.955 39.4453 265.275 39.136C265.595 38.8267 265.755 38.4 265.755 37.856C265.755 37.3013 265.595 36.8693 265.275 36.56C264.955 36.24 264.512 36.08 263.947 36.08H262.251V39.6ZM270.005 46V34.32H272.373L273.509 38.032C273.626 38.4053 273.722 38.7467 273.797 39.056C273.871 39.3653 273.919 39.5893 273.941 39.728C273.962 39.5893 274.01 39.3653 274.085 39.056C274.159 38.7467 274.25 38.4053 274.357 38.032L275.445 34.32H277.813V46H275.941V42.368C275.941 41.8347 275.957 41.2533 275.989 40.624C276.021 39.9947 276.058 39.3653 276.101 38.736C276.143 38.1067 276.191 37.5093 276.245 36.944C276.309 36.3787 276.362 35.8827 276.405 35.456L274.837 40.976H273.013L271.397 35.456C271.45 35.8613 271.503 36.3413 271.557 36.896C271.61 37.44 271.658 38.0267 271.701 38.656C271.754 39.2747 271.797 39.904 271.829 40.544C271.861 41.184 271.877 41.792 271.877 42.368V46H270.005ZM279.742 46L282.686 34.32H285.262L288.222 46H286.174L285.534 43.168H282.43L281.79 46H279.742ZM282.798 41.536H285.166L284.462 38.4C284.345 37.8773 284.244 37.408 284.158 36.992C284.073 36.5653 284.014 36.256 283.982 36.064C283.95 36.256 283.892 36.5653 283.806 36.992C283.732 37.408 283.63 37.872 283.502 38.384L282.798 41.536ZM290.408 46V34.32H292.856L296.104 43.76C296.072 43.4187 296.035 43.0187 295.992 42.56C295.96 42.0907 295.934 41.616 295.912 41.136C295.891 40.6453 295.88 40.2187 295.88 39.856V34.32H297.704V46H295.256L292.04 36.56C292.062 36.8693 292.088 37.2427 292.12 37.68C292.152 38.1173 292.179 38.5653 292.2 39.024C292.222 39.4827 292.232 39.904 292.232 40.288V46H290.408ZM304.194 46.16C303.447 46.16 302.791 46.0213 302.226 45.744C301.671 45.456 301.239 45.056 300.93 44.544C300.631 44.0213 300.482 43.408 300.482 42.704V37.616C300.482 36.9013 300.631 36.288 300.93 35.776C301.239 35.264 301.671 34.8693 302.226 34.592C302.791 34.304 303.447 34.16 304.194 34.16C304.951 34.16 305.602 34.304 306.146 34.592C306.701 34.8693 307.133 35.264 307.442 35.776C307.751 36.288 307.906 36.9013 307.906 37.616H305.89C305.89 37.0613 305.741 36.64 305.442 36.352C305.154 36.064 304.738 35.92 304.194 35.92C303.65 35.92 303.229 36.064 302.93 36.352C302.631 36.64 302.482 37.056 302.482 37.6V42.704C302.482 43.248 302.631 43.6693 302.93 43.968C303.229 44.256 303.65 44.4 304.194 44.4C304.738 44.4 305.154 44.256 305.442 43.968C305.741 43.6693 305.89 43.248 305.89 42.704H307.906C307.906 43.3973 307.751 44.0053 307.442 44.528C307.133 45.0507 306.701 45.456 306.146 45.744C305.602 46.0213 304.951 46.16 304.194 46.16ZM310.812 46V34.32H317.82V36.064H312.78V39.104H317.26V40.832H312.78V44.256H317.82V46H310.812Z" fill="black"/>
<path d="M99.872 71.68C98.556 71.3533 97.5387 70.7187 96.82 69.776C96.1014 68.8333 95.742 67.662 95.742 66.262V63.658C95.742 62.734 95.9054 61.908 96.232 61.18C96.568 60.4427 97.044 59.822 97.66 59.318C98.276 58.814 99.0134 58.4547 99.872 58.24V59.304C99.256 59.444 98.724 59.7193 98.276 60.13C97.828 60.5313 97.4827 61.0307 97.24 61.628C96.9974 62.2253 96.876 62.902 96.876 63.658V66.262C96.876 66.9993 96.9974 67.6713 97.24 68.278C97.4827 68.8753 97.828 69.3747 98.276 69.776C98.724 70.168 99.256 70.434 99.872 70.574V71.68ZM102.835 70V62.3H103.941V63.728H104.221L103.913 64.134C103.913 63.518 104.099 63.0373 104.473 62.692C104.855 62.3373 105.373 62.16 106.027 62.16C106.792 62.16 107.403 62.4027 107.861 62.888C108.318 63.364 108.547 64.0127 108.547 64.834V70H107.441V64.96C107.441 64.372 107.287 63.9193 106.979 63.602C106.671 63.2847 106.251 63.126 105.719 63.126C105.168 63.126 104.734 63.294 104.417 63.63C104.099 63.966 103.941 64.442 103.941 65.058V70H102.835ZM114.071 70.126C113.474 70.126 112.956 70.0093 112.517 69.776C112.078 69.5427 111.738 69.2067 111.495 68.768C111.252 68.3293 111.131 67.8113 111.131 67.214V65.086C111.131 64.4793 111.252 63.9613 111.495 63.532C111.738 63.0933 112.078 62.7573 112.517 62.524C112.956 62.2907 113.474 62.174 114.071 62.174C114.668 62.174 115.186 62.2907 115.625 62.524C116.064 62.7573 116.404 63.0933 116.647 63.532C116.89 63.9613 117.011 64.4747 117.011 65.072V67.214C117.011 67.8113 116.89 68.3293 116.647 68.768C116.404 69.2067 116.064 69.5427 115.625 69.776C115.186 70.0093 114.668 70.126 114.071 70.126ZM114.071 69.132C114.65 69.132 115.098 68.9687 115.415 68.642C115.732 68.3153 115.891 67.8393 115.891 67.214V65.086C115.891 64.4607 115.728 63.9847 115.401 63.658C115.084 63.3313 114.64 63.168 114.071 63.168C113.502 63.168 113.054 63.3313 112.727 63.658C112.41 63.9847 112.251 64.4607 112.251 65.086V67.214C112.251 67.8393 112.41 68.3153 112.727 68.642C113.054 68.9687 113.502 69.132 114.071 69.132ZM119.876 70V62.3H120.968V63.728H121.234L120.842 64.61C120.851 63.826 121.042 63.224 121.416 62.804C121.789 62.3747 122.326 62.16 123.026 62.16C123.838 62.16 124.482 62.4167 124.958 62.93C125.443 63.434 125.686 64.1153 125.686 64.974V65.436H124.552V65.058C124.552 64.4327 124.398 63.952 124.09 63.616C123.782 63.2707 123.343 63.098 122.774 63.098C122.223 63.098 121.789 63.2707 121.472 63.616C121.154 63.9613 120.996 64.442 120.996 65.058V70H119.876ZM127.626 70V62.3H128.606V63.252H128.816L128.662 63.56C128.662 63.1307 128.774 62.79 128.998 62.538C129.231 62.286 129.549 62.16 129.95 62.16C130.37 62.16 130.697 62.3093 130.93 62.608C131.173 62.9067 131.299 63.3267 131.308 63.868L131.014 63.252H131.476L131.28 63.56C131.28 63.1307 131.397 62.79 131.63 62.538C131.863 62.286 132.181 62.16 132.582 62.16C133.058 62.16 133.427 62.3373 133.688 62.692C133.959 63.0467 134.094 63.518 134.094 64.106V70H133.058V64.106C133.058 63.77 132.983 63.5087 132.834 63.322C132.685 63.126 132.475 63.028 132.204 63.028C131.933 63.028 131.719 63.126 131.56 63.322C131.401 63.5087 131.322 63.77 131.322 64.106V70H130.398V64.106C130.398 63.7607 130.319 63.4947 130.16 63.308C130.011 63.1213 129.801 63.028 129.53 63.028C129.259 63.028 129.049 63.1213 128.9 63.308C128.751 63.4947 128.671 63.7607 128.662 64.106V70H127.626ZM138.653 70.14C137.841 70.14 137.201 69.9347 136.735 69.524C136.268 69.104 136.035 68.5393 136.035 67.83C136.035 67.13 136.263 66.5793 136.721 66.178C137.178 65.7673 137.794 65.562 138.569 65.562H141.019V64.75C141.019 64.2367 140.869 63.84 140.571 63.56C140.272 63.28 139.847 63.14 139.297 63.14C138.811 63.14 138.405 63.2473 138.079 63.462C137.761 63.6767 137.579 63.966 137.533 64.33H136.413C136.506 63.6673 136.814 63.14 137.337 62.748C137.869 62.356 138.531 62.16 139.325 62.16C140.183 62.16 140.865 62.3933 141.369 62.86C141.873 63.3173 142.125 63.938 142.125 64.722V70H141.033V68.502H140.851L141.061 68.278C141.061 68.8473 140.841 69.3 140.403 69.636C139.964 69.972 139.381 70.14 138.653 70.14ZM138.919 69.244C139.535 69.244 140.039 69.09 140.431 68.782C140.823 68.474 141.019 68.0727 141.019 67.578V66.416H138.583C138.144 66.416 137.794 66.5373 137.533 66.78C137.271 67.0227 137.141 67.354 137.141 67.774C137.141 68.222 137.299 68.5813 137.617 68.852C137.934 69.1133 138.368 69.244 138.919 69.244ZM148.657 70C148.219 70 147.836 69.916 147.509 69.748C147.192 69.58 146.945 69.3373 146.767 69.02C146.59 68.7027 146.501 68.3293 146.501 67.9V60.788H143.939V59.78H147.607V67.9C147.607 68.2453 147.701 68.516 147.887 68.712C148.074 68.8987 148.331 68.992 148.657 68.992H151.107V70H148.657ZM153.076 70V68.992H155.82V63.308H153.426V62.3H156.94V68.992H159.544V70H153.076ZM156.254 60.886C155.964 60.886 155.731 60.8113 155.554 60.662C155.386 60.5127 155.302 60.3073 155.302 60.046C155.302 59.7753 155.386 59.5607 155.554 59.402C155.731 59.2433 155.964 59.164 156.254 59.164C156.543 59.164 156.772 59.2433 156.94 59.402C157.117 59.5607 157.206 59.7753 157.206 60.046C157.206 60.298 157.117 60.5033 156.94 60.662C156.772 60.8113 156.543 60.886 156.254 60.886ZM161.54 70V68.908L165.922 63.308H161.666V62.3H167.168V63.406L162.73 68.992H167.336V70H161.54ZM172.833 70.14C172.235 70.14 171.717 70.0233 171.279 69.79C170.84 69.5473 170.499 69.2067 170.257 68.768C170.014 68.3293 169.893 67.8207 169.893 67.242V65.058C169.893 64.47 170.014 63.9613 170.257 63.532C170.499 63.0933 170.84 62.7573 171.279 62.524C171.717 62.2813 172.235 62.16 172.833 62.16C173.43 62.16 173.948 62.2813 174.387 62.524C174.825 62.7573 175.166 63.0933 175.409 63.532C175.651 63.9613 175.773 64.47 175.773 65.058V66.416H170.985V67.242C170.985 67.8673 171.143 68.3527 171.461 68.698C171.787 69.034 172.245 69.202 172.833 69.202C173.327 69.202 173.729 69.104 174.037 68.908C174.354 68.712 174.555 68.4273 174.639 68.054H175.745C175.642 68.698 175.329 69.2067 174.807 69.58C174.284 69.9533 173.626 70.14 172.833 70.14ZM174.681 65.674V65.058C174.681 64.4327 174.522 63.952 174.205 63.616C173.887 63.2707 173.43 63.098 172.833 63.098C172.245 63.098 171.787 63.2707 171.461 63.616C171.143 63.952 170.985 64.4327 170.985 65.058V65.548H174.793L174.681 65.674ZM180.849 70.14C180.084 70.14 179.463 69.8833 178.987 69.37C178.521 68.8567 178.287 68.166 178.287 67.298V65.016C178.287 64.1387 178.521 63.4433 178.987 62.93C179.454 62.4167 180.075 62.16 180.849 62.16C181.493 62.16 182.011 62.3373 182.403 62.692C182.805 63.0467 183.005 63.5227 183.005 64.12L182.711 63.658H182.977L182.963 61.978V59.78H184.069V70H182.963V68.642H182.669L183.005 68.18C183.005 68.7867 182.805 69.2673 182.403 69.622C182.011 69.9673 181.493 70.14 180.849 70.14ZM181.199 69.174C181.75 69.174 182.179 69.006 182.487 68.67C182.805 68.3247 182.963 67.8487 182.963 67.242V65.058C182.963 64.4513 182.805 63.98 182.487 63.644C182.179 63.2987 181.75 63.126 181.199 63.126C180.639 63.126 180.201 63.294 179.883 63.63C179.566 63.966 179.407 64.442 179.407 65.058V67.242C179.407 67.858 179.566 68.334 179.883 68.67C180.201 69.006 180.639 69.174 181.199 69.174ZM187.83 72.24L188.922 67.886H190.602L188.796 72.24H187.83ZM203.569 70V59.78H204.675V62.188V63.672H204.955L204.647 64.12C204.647 63.504 204.834 63.0233 205.207 62.678C205.59 62.3327 206.108 62.16 206.761 62.16C207.526 62.16 208.138 62.4027 208.595 62.888C209.052 63.364 209.281 64.0127 209.281 64.834V70H208.175V64.96C208.175 64.372 208.021 63.9147 207.713 63.588C207.405 63.2613 206.985 63.098 206.453 63.098C205.902 63.098 205.468 63.2707 205.151 63.616C204.834 63.9613 204.675 64.442 204.675 65.058V70H203.569ZM211.837 70V68.992H214.581V63.308H212.187V62.3H215.701V68.992H218.305V70H211.837ZM215.015 60.886C214.726 60.886 214.493 60.8113 214.315 60.662C214.147 60.5127 214.063 60.3073 214.063 60.046C214.063 59.7753 214.147 59.5607 214.315 59.402C214.493 59.2433 214.726 59.164 215.015 59.164C215.305 59.164 215.533 59.2433 215.701 59.402C215.879 59.5607 215.967 59.7753 215.967 60.046C215.967 60.298 215.879 60.5033 215.701 60.662C215.533 60.8113 215.305 60.886 215.015 60.886ZM221.296 72.52V71.512H223.634C224.073 71.512 224.395 71.4093 224.6 71.204C224.815 70.9987 224.922 70.686 224.922 70.266V69.37L224.95 67.914H224.698L224.964 67.592C224.964 68.1707 224.773 68.6327 224.39 68.978C224.007 69.3233 223.494 69.496 222.85 69.496C222.066 69.496 221.445 69.2393 220.988 68.726C220.531 68.2033 220.302 67.508 220.302 66.64V65.002C220.302 64.134 220.531 63.4433 220.988 62.93C221.445 62.4167 222.066 62.16 222.85 62.16C223.494 62.16 224.007 62.3327 224.39 62.678C224.773 63.014 224.964 63.4713 224.964 64.05L224.712 63.728H224.936V62.3H226.028V70.266C226.028 70.9753 225.818 71.526 225.398 71.918C224.987 72.3193 224.399 72.52 223.634 72.52H221.296ZM223.172 68.53C223.723 68.53 224.152 68.362 224.46 68.026C224.777 67.6807 224.936 67.2047 224.936 66.598V65.058C224.936 64.4513 224.777 63.98 224.46 63.644C224.152 63.2987 223.723 63.126 223.172 63.126C222.612 63.126 222.178 63.294 221.87 63.63C221.562 63.966 221.408 64.442 221.408 65.058V66.598C221.408 67.214 221.562 67.69 221.87 68.026C222.178 68.362 222.612 68.53 223.172 68.53ZM228.753 70V59.78H229.859V62.188V63.672H230.139L229.831 64.12C229.831 63.504 230.017 63.0233 230.391 62.678C230.773 62.3327 231.291 62.16 231.945 62.16C232.71 62.16 233.321 62.4027 233.779 62.888C234.236 63.364 234.465 64.0127 234.465 64.834V70H233.359V64.96C233.359 64.372 233.205 63.9147 232.897 63.588C232.589 63.2613 232.169 63.098 231.637 63.098C231.086 63.098 230.652 63.2707 230.335 63.616C230.017 63.9613 229.859 64.442 229.859 65.058V70H228.753ZM239.989 70.14C239.392 70.14 238.874 70.0233 238.435 69.79C237.996 69.5473 237.656 69.2067 237.413 68.768C237.17 68.3293 237.049 67.8207 237.049 67.242V65.058C237.049 64.47 237.17 63.9613 237.413 63.532C237.656 63.0933 237.996 62.7573 238.435 62.524C238.874 62.2813 239.392 62.16 239.989 62.16C240.586 62.16 241.104 62.2813 241.543 62.524C241.982 62.7573 242.322 63.0933 242.565 63.532C242.808 63.9613 242.929 64.47 242.929 65.058V66.416H238.141V67.242C238.141 67.8673 238.3 68.3527 238.617 68.698C238.944 69.034 239.401 69.202 239.989 69.202C240.484 69.202 240.885 69.104 241.193 68.908C241.51 68.712 241.711 68.4273 241.795 68.054H242.901C242.798 68.698 242.486 69.2067 241.963 69.58C241.44 69.9533 240.782 70.14 239.989 70.14ZM241.837 65.674V65.058C241.837 64.4327 241.678 63.952 241.361 63.616C241.044 63.2707 240.586 63.098 239.989 63.098C239.401 63.098 238.944 63.2707 238.617 63.616C238.3 63.952 238.141 64.4327 238.141 65.058V65.548H241.949L241.837 65.674ZM245.794 70V62.3H246.886V63.728H247.152L246.76 64.61C246.769 63.826 246.96 63.224 247.334 62.804C247.707 62.3747 248.244 62.16 248.944 62.16C249.756 62.16 250.4 62.4167 250.876 62.93C251.361 63.434 251.604 64.1153 251.604 64.974V65.436H250.47V65.058C250.47 64.4327 250.316 63.952 250.008 63.616C249.7 63.2707 249.261 63.098 248.692 63.098C248.141 63.098 247.707 63.2707 247.39 63.616C247.072 63.9613 246.914 64.442 246.914 65.058V70H245.794ZM262.205 70V68.992H264.949V63.308H262.555V62.3H266.069V68.992H268.673V70H262.205ZM265.383 60.886C265.093 60.886 264.86 60.8113 264.683 60.662C264.515 60.5127 264.431 60.3073 264.431 60.046C264.431 59.7753 264.515 59.5607 264.683 59.402C264.86 59.2433 265.093 59.164 265.383 59.164C265.672 59.164 265.901 59.2433 266.069 59.402C266.246 59.5607 266.335 59.7753 266.335 60.046C266.335 60.298 266.246 60.5033 266.069 60.662C265.901 60.8113 265.672 60.886 265.383 60.886ZM273.287 70.126C272.783 70.126 272.34 70.042 271.957 69.874C271.575 69.706 271.271 69.4727 271.047 69.174C270.823 68.866 270.688 68.5113 270.641 68.11H271.747C271.813 68.418 271.976 68.6653 272.237 68.852C272.508 69.0387 272.858 69.132 273.287 69.132H273.973C274.468 69.132 274.841 69.0247 275.093 68.81C275.355 68.586 275.485 68.292 275.485 67.928C275.485 67.5827 275.373 67.3027 275.149 67.088C274.925 66.8733 274.603 66.7333 274.183 66.668L273.021 66.486C272.293 66.3647 271.743 66.1313 271.369 65.786C271.005 65.4407 270.823 64.9553 270.823 64.33C270.823 63.6487 271.043 63.1213 271.481 62.748C271.929 62.3653 272.573 62.174 273.413 62.174H273.959C274.687 62.174 275.271 62.3467 275.709 62.692C276.157 63.0373 276.428 63.504 276.521 64.092H275.401C275.345 63.812 275.191 63.588 274.939 63.42C274.697 63.252 274.37 63.168 273.959 63.168H273.413C272.919 63.168 272.55 63.2707 272.307 63.476C272.065 63.672 271.943 63.9567 271.943 64.33C271.943 64.666 272.046 64.9227 272.251 65.1C272.457 65.268 272.769 65.3847 273.189 65.45L274.337 65.632C275.103 65.7533 275.672 65.996 276.045 66.36C276.419 66.7147 276.605 67.214 276.605 67.858C276.605 68.558 276.381 69.1133 275.933 69.524C275.485 69.9253 274.832 70.126 273.973 70.126H273.287ZM290.734 70.14C290.09 70.14 289.568 69.9673 289.166 69.622C288.774 69.2673 288.578 68.7867 288.578 68.18L288.914 68.642H288.62V70H287.514V59.78H288.62V61.978L288.606 63.658H288.872L288.578 64.12C288.578 63.5227 288.779 63.0467 289.18 62.692C289.582 62.3373 290.1 62.16 290.734 62.16C291.509 62.16 292.13 62.4167 292.596 62.93C293.063 63.4433 293.296 64.1387 293.296 65.016V67.298C293.296 68.166 293.063 68.8567 292.596 69.37C292.13 69.8833 291.509 70.14 290.734 70.14ZM290.384 69.174C290.944 69.174 291.383 69.006 291.7 68.67C292.018 68.334 292.176 67.858 292.176 67.242V65.058C292.176 64.442 292.018 63.966 291.7 63.63C291.383 63.294 290.944 63.126 290.384 63.126C289.843 63.126 289.414 63.2987 289.096 63.644C288.779 63.98 288.62 64.4513 288.62 65.058V67.242C288.62 67.8487 288.779 68.3247 289.096 68.67C289.414 69.006 289.843 69.174 290.384 69.174ZM298.751 70.14C298.153 70.14 297.635 70.0233 297.197 69.79C296.758 69.5473 296.417 69.2067 296.175 68.768C295.932 68.3293 295.811 67.8207 295.811 67.242V65.058C295.811 64.47 295.932 63.9613 296.175 63.532C296.417 63.0933 296.758 62.7573 297.197 62.524C297.635 62.2813 298.153 62.16 298.751 62.16C299.348 62.16 299.866 62.2813 300.305 62.524C300.743 62.7573 301.084 63.0933 301.327 63.532C301.569 63.9613 301.691 64.47 301.691 65.058V66.416H296.903V67.242C296.903 67.8673 297.061 68.3527 297.379 68.698C297.705 69.034 298.163 69.202 298.751 69.202C299.245 69.202 299.647 69.104 299.955 68.908C300.272 68.712 300.473 68.4273 300.557 68.054H301.663C301.56 68.698 301.247 69.2067 300.725 69.58C300.202 69.9533 299.544 70.14 298.751 70.14ZM300.599 65.674V65.058C300.599 64.4327 300.44 63.952 300.123 63.616C299.805 63.2707 299.348 63.098 298.751 63.098C298.163 63.098 297.705 63.2707 297.379 63.616C297.061 63.952 296.903 64.4327 296.903 65.058V65.548H300.711L300.599 65.674ZM307.985 70C307.341 70 306.842 69.832 306.487 69.496C306.133 69.1507 305.955 68.6653 305.955 68.04V63.308H303.771V62.3H305.955V60.13H307.075V62.3H310.169V63.308H307.075V68.04C307.075 68.6747 307.379 68.992 307.985 68.992H310.029V70H307.985ZM316.38 70C315.736 70 315.237 69.832 314.882 69.496C314.527 69.1507 314.35 68.6653 314.35 68.04V63.308H312.166V62.3H314.35V60.13H315.47V62.3H318.564V63.308H315.47V68.04C315.47 68.6747 315.773 68.992 316.38 68.992H318.424V70H316.38ZM323.934 70.14C323.337 70.14 322.819 70.0233 322.38 69.79C321.942 69.5473 321.601 69.2067 321.358 68.768C321.116 68.3293 320.994 67.8207 320.994 67.242V65.058C320.994 64.47 321.116 63.9613 321.358 63.532C321.601 63.0933 321.942 62.7573 322.38 62.524C322.819 62.2813 323.337 62.16 323.934 62.16C324.532 62.16 325.05 62.2813 325.488 62.524C325.927 62.7573 326.268 63.0933 326.51 63.532C326.753 63.9613 326.874 64.47 326.874 65.058V66.416H322.086V67.242C322.086 67.8673 322.245 68.3527 322.562 68.698C322.889 69.034 323.346 69.202 323.934 69.202C324.429 69.202 324.83 69.104 325.138 68.908C325.456 68.712 325.656 68.4273 325.74 68.054H326.846C326.744 68.698 326.431 69.2067 325.908 69.58C325.386 69.9533 324.728 70.14 323.934 70.14ZM325.782 65.674V65.058C325.782 64.4327 325.624 63.952 325.306 63.616C324.989 63.2707 324.532 63.098 323.934 63.098C323.346 63.098 322.889 63.2707 322.562 63.616C322.245 63.952 322.086 64.4327 322.086 65.058V65.548H325.894L325.782 65.674ZM329.739 70V62.3H330.831V63.728H331.097L330.705 64.61C330.714 63.826 330.906 63.224 331.279 62.804C331.652 62.3747 332.189 62.16 332.889 62.16C333.701 62.16 334.345 62.4167 334.821 62.93C335.306 63.434 335.549 64.1153 335.549 64.974V65.436H334.415V65.058C334.415 64.4327 334.261 63.952 333.953 63.616C333.645 63.2707 333.206 63.098 332.637 63.098C332.086 63.098 331.652 63.2707 331.335 63.616C331.018 63.9613 330.859 64.442 330.859 65.058V70H329.739ZM338.133 71.68V70.574C338.759 70.434 339.291 70.168 339.729 69.776C340.177 69.3747 340.523 68.8753 340.765 68.278C341.008 67.6713 341.129 66.9993 341.129 66.262V63.658C341.129 62.902 341.008 62.2253 340.765 61.628C340.523 61.0307 340.177 60.5313 339.729 60.13C339.281 59.7193 338.749 59.444 338.133 59.304V58.24C339.001 58.4547 339.739 58.814 340.345 59.318C340.961 59.822 341.433 60.4427 341.759 61.18C342.095 61.908 342.263 62.734 342.263 63.658V66.262C342.263 67.662 341.904 68.8333 341.185 69.776C340.467 70.7187 339.449 71.3533 338.133 71.68Z" fill="black"/>
<rect x="86" y="122" width="75" height="240" rx="1" fill="#7DCBE5"/>
<path d="M181 320C181 319.448 181.448 319 182 319H255C255.552 319 256 319.448 256 320V361C256 361.552 255.552 362 255 362H182C181.448 362 181 361.552 181 361V320Z" fill="#F49DD2"/>
<rect x="276" y="282" width="75" height="80" rx="1" fill="#FCD856"/>
<path d="M106.882 387.14C106.247 387.14 105.738 386.972 105.356 386.636C104.973 386.291 104.782 385.824 104.782 385.236L105.034 385.53H104.782V387H103.522V376.78H104.782V379.02L104.754 380.77H105.034L104.782 381.064C104.782 380.485 104.973 380.023 105.356 379.678C105.748 379.333 106.256 379.16 106.882 379.16C107.656 379.16 108.277 379.417 108.744 379.93C109.21 380.443 109.444 381.143 109.444 382.03V384.284C109.444 385.161 109.21 385.857 108.744 386.37C108.277 386.883 107.656 387.14 106.882 387.14ZM106.462 386.048C106.994 386.048 107.414 385.889 107.722 385.572C108.03 385.255 108.184 384.797 108.184 384.2V382.1C108.184 381.503 108.03 381.045 107.722 380.728C107.414 380.411 106.994 380.252 106.462 380.252C105.948 380.252 105.538 380.415 105.23 380.742C104.931 381.069 104.782 381.521 104.782 382.1V384.2C104.782 384.779 104.931 385.231 105.23 385.558C105.538 385.885 105.948 386.048 106.462 386.048ZM114.968 387.14C114.362 387.14 113.83 387.019 113.372 386.776C112.924 386.533 112.574 386.193 112.322 385.754C112.08 385.306 111.958 384.788 111.958 384.2V382.1C111.958 381.503 112.08 380.985 112.322 380.546C112.574 380.107 112.924 379.767 113.372 379.524C113.83 379.281 114.362 379.16 114.968 379.16C115.575 379.16 116.102 379.281 116.55 379.524C117.008 379.767 117.358 380.107 117.6 380.546C117.852 380.985 117.978 381.503 117.978 382.1V383.458H113.19V384.2C113.19 384.807 113.344 385.273 113.652 385.6C113.96 385.917 114.399 386.076 114.968 386.076C115.454 386.076 115.846 385.992 116.144 385.824C116.443 385.647 116.625 385.385 116.69 385.04H117.95C117.866 385.684 117.549 386.197 116.998 386.58C116.457 386.953 115.78 387.14 114.968 387.14ZM116.746 382.618V382.1C116.746 381.493 116.592 381.027 116.284 380.7C115.986 380.373 115.547 380.21 114.968 380.21C114.399 380.21 113.96 380.373 113.652 380.7C113.344 381.027 113.19 381.493 113.19 382.1V382.506H116.844L116.746 382.618ZM123.055 387.14C122.289 387.14 121.669 386.883 121.193 386.37C120.726 385.857 120.493 385.161 120.493 384.284V382.03C120.493 381.143 120.726 380.443 121.193 379.93C121.659 379.417 122.28 379.16 123.055 379.16C123.689 379.16 124.198 379.333 124.581 379.678C124.963 380.023 125.155 380.485 125.155 381.064L124.903 380.77H125.183L125.155 379.02V376.78H126.415V387H125.155V385.53H124.903L125.155 385.236C125.155 385.824 124.963 386.291 124.581 386.636C124.198 386.972 123.689 387.14 123.055 387.14ZM123.475 386.048C123.997 386.048 124.408 385.885 124.707 385.558C125.005 385.231 125.155 384.779 125.155 384.2V382.1C125.155 381.521 125.005 381.069 124.707 380.742C124.408 380.415 123.997 380.252 123.475 380.252C122.943 380.252 122.523 380.411 122.215 380.728C121.907 381.045 121.753 381.503 121.753 382.1V384.2C121.753 384.797 121.907 385.255 122.215 385.572C122.523 385.889 122.943 386.048 123.475 386.048ZM129.027 387V385.852H131.757V380.448H129.377V379.3H133.017V385.852H135.607V387H129.027ZM132.247 377.914C131.939 377.914 131.697 377.835 131.519 377.676C131.342 377.517 131.253 377.303 131.253 377.032C131.253 376.752 131.342 376.533 131.519 376.374C131.697 376.206 131.939 376.122 132.247 376.122C132.555 376.122 132.798 376.206 132.975 376.374C133.153 376.533 133.241 376.752 133.241 377.032C133.241 377.303 133.153 377.517 132.975 377.676C132.798 377.835 132.555 377.914 132.247 377.914ZM141.412 387C140.749 387 140.231 386.823 139.858 386.468C139.494 386.113 139.312 385.614 139.312 384.97V380.448H137.142V379.3H139.312V377.13H140.572V379.3H143.652V380.448H140.572V384.97C140.572 385.558 140.852 385.852 141.412 385.852H143.512V387H141.412Z" fill="black"/>
<path d="M198.424 387V385.852H201.154V380.448H198.774V379.3H202.414V385.852H205.004V387H198.424ZM201.644 377.914C201.336 377.914 201.093 377.835 200.916 377.676C200.738 377.517 200.65 377.303 200.65 377.032C200.65 376.752 200.738 376.533 200.916 376.374C201.093 376.206 201.336 376.122 201.644 376.122C201.952 376.122 202.194 376.206 202.372 376.374C202.549 376.533 202.638 376.752 202.638 377.032C202.638 377.303 202.549 377.517 202.372 377.676C202.194 377.835 201.952 377.914 201.644 377.914ZM206.692 387V379.3H207.798V380.224H208.05L207.854 380.56C207.854 380.131 207.966 379.79 208.19 379.538C208.424 379.286 208.736 379.16 209.128 379.16C209.558 379.16 209.889 379.319 210.122 379.636C210.356 379.953 210.472 380.401 210.472 380.98L210.094 380.224H210.682L210.416 380.56C210.416 380.131 210.533 379.79 210.766 379.538C211.009 379.286 211.326 379.16 211.718 379.16C212.204 379.16 212.577 379.342 212.838 379.706C213.109 380.07 213.244 380.551 213.244 381.148V387H212.082V381.134C212.082 380.817 212.012 380.569 211.872 380.392C211.742 380.215 211.546 380.126 211.284 380.126C211.032 380.126 210.832 380.215 210.682 380.392C210.542 380.56 210.472 380.803 210.472 381.12V387H209.464V381.134C209.464 380.807 209.39 380.56 209.24 380.392C209.1 380.215 208.9 380.126 208.638 380.126C208.377 380.126 208.181 380.215 208.05 380.392C207.92 380.56 207.854 380.803 207.854 381.12V387H206.692ZM215.227 387V379.3H216.333V380.224H216.585L216.389 380.56C216.389 380.131 216.501 379.79 216.725 379.538C216.958 379.286 217.271 379.16 217.663 379.16C218.092 379.16 218.423 379.319 218.657 379.636C218.89 379.953 219.007 380.401 219.007 380.98L218.629 380.224H219.217L218.951 380.56C218.951 380.131 219.067 379.79 219.301 379.538C219.543 379.286 219.861 379.16 220.253 379.16C220.738 379.16 221.111 379.342 221.373 379.706C221.643 380.07 221.779 380.551 221.779 381.148V387H220.617V381.134C220.617 380.817 220.547 380.569 220.407 380.392C220.276 380.215 220.08 380.126 219.819 380.126C219.567 380.126 219.366 380.215 219.217 380.392C219.077 380.56 219.007 380.803 219.007 381.12V387H217.999V381.134C217.999 380.807 217.924 380.56 217.775 380.392C217.635 380.215 217.434 380.126 217.173 380.126C216.911 380.126 216.715 380.215 216.585 380.392C216.454 380.56 216.389 380.803 216.389 381.12V387H215.227ZM227.037 387.14C226.431 387.14 225.899 387.019 225.441 386.776C224.993 386.533 224.643 386.193 224.391 385.754C224.149 385.306 224.027 384.788 224.027 384.2V382.1C224.027 381.503 224.149 380.985 224.391 380.546C224.643 380.107 224.993 379.767 225.441 379.524C225.899 379.281 226.431 379.16 227.037 379.16C227.644 379.16 228.171 379.281 228.619 379.524C229.077 379.767 229.427 380.107 229.669 380.546C229.921 380.985 230.047 381.503 230.047 382.1V383.458H225.259V384.2C225.259 384.807 225.413 385.273 225.721 385.6C226.029 385.917 226.468 386.076 227.037 386.076C227.523 386.076 227.915 385.992 228.213 385.824C228.512 385.647 228.694 385.385 228.759 385.04H230.019C229.935 385.684 229.618 386.197 229.067 386.58C228.526 386.953 227.849 387.14 227.037 387.14ZM228.815 382.618V382.1C228.815 381.493 228.661 381.027 228.353 380.7C228.055 380.373 227.616 380.21 227.037 380.21C226.468 380.21 226.029 380.373 225.721 380.7C225.413 381.027 225.259 381.493 225.259 382.1V382.506H228.913L228.815 382.618ZM232.926 387V379.3H234.158V380.77H234.452L234.046 381.68C234.046 380.849 234.223 380.224 234.578 379.804C234.942 379.375 235.478 379.16 236.188 379.16C237 379.16 237.644 379.417 238.12 379.93C238.605 380.434 238.848 381.12 238.848 381.988V382.45H237.588V382.1C237.588 381.493 237.438 381.031 237.14 380.714C236.85 380.387 236.435 380.224 235.894 380.224C235.362 380.224 234.942 380.387 234.634 380.714C234.335 381.041 234.186 381.503 234.186 382.1V387H232.926Z" fill="black"/>
<path d="M281.356 387V379.3H282.462V380.224H282.714L282.518 380.56C282.518 380.131 282.63 379.79 282.854 379.538C283.087 379.286 283.4 379.16 283.792 379.16C284.221 379.16 284.553 379.319 284.786 379.636C285.019 379.953 285.136 380.401 285.136 380.98L284.758 380.224H285.346L285.08 380.56C285.08 380.131 285.197 379.79 285.43 379.538C285.673 379.286 285.99 379.16 286.382 379.16C286.867 379.16 287.241 379.342 287.502 379.706C287.773 380.07 287.908 380.551 287.908 381.148V387H286.746V381.134C286.746 380.817 286.676 380.569 286.536 380.392C286.405 380.215 286.209 380.126 285.948 380.126C285.696 380.126 285.495 380.215 285.346 380.392C285.206 380.56 285.136 380.803 285.136 381.12V387H284.128V381.134C284.128 380.807 284.053 380.56 283.904 380.392C283.764 380.215 283.563 380.126 283.302 380.126C283.041 380.126 282.845 380.215 282.714 380.392C282.583 380.56 282.518 380.803 282.518 381.12V387H281.356ZM293.152 387.14C292.266 387.14 291.556 386.879 291.024 386.356C290.492 385.824 290.226 385.105 290.226 384.2V379.3H291.486V384.2C291.486 384.779 291.636 385.231 291.934 385.558C292.233 385.875 292.639 386.034 293.152 386.034C293.675 386.034 294.086 385.875 294.384 385.558C294.692 385.231 294.846 384.779 294.846 384.2V379.3H296.106V384.2C296.106 385.105 295.836 385.824 295.294 386.356C294.753 386.879 294.039 387.14 293.152 387.14ZM302.541 387C301.878 387 301.36 386.823 300.987 386.468C300.623 386.113 300.441 385.614 300.441 384.97V380.448H298.271V379.3H300.441V377.13H301.701V379.3H304.781V380.448H301.701V384.97C301.701 385.558 301.981 385.852 302.541 385.852H304.641V387H302.541ZM309.563 387.14C308.751 387.14 308.112 386.935 307.645 386.524C307.179 386.104 306.945 385.539 306.945 384.83C306.945 384.111 307.179 383.547 307.645 383.136C308.112 382.725 308.742 382.52 309.535 382.52H311.915V381.75C311.915 381.274 311.771 380.91 311.481 380.658C311.201 380.397 310.8 380.266 310.277 380.266C309.82 380.266 309.437 380.364 309.129 380.56C308.821 380.747 308.644 381.003 308.597 381.33H307.337C307.421 380.667 307.734 380.14 308.275 379.748C308.817 379.356 309.493 379.16 310.305 379.16C311.192 379.16 311.892 379.389 312.405 379.846C312.919 380.303 313.175 380.924 313.175 381.708V387H311.943V385.53H311.733L311.943 385.32C311.943 385.88 311.724 386.323 311.285 386.65C310.856 386.977 310.282 387.14 309.563 387.14ZM309.871 386.146C310.469 386.146 310.959 385.997 311.341 385.698C311.724 385.399 311.915 385.017 311.915 384.55V383.458H309.563C309.143 383.458 308.812 383.575 308.569 383.808C308.327 384.041 308.205 384.359 308.205 384.76C308.205 385.189 308.35 385.53 308.639 385.782C308.938 386.025 309.349 386.146 309.871 386.146ZM319.61 387C318.947 387 318.429 386.823 318.056 386.468C317.692 386.113 317.51 385.614 317.51 384.97V380.448H315.34V379.3H317.51V377.13H318.77V379.3H321.85V380.448H318.77V384.97C318.77 385.558 319.05 385.852 319.61 385.852H321.71V387H319.61ZM324.295 387V385.852H327.025V380.448H324.645V379.3H328.285V385.852H330.875V387H324.295ZM327.515 377.914C327.207 377.914 326.964 377.835 326.787 377.676C326.609 377.517 326.521 377.303 326.521 377.032C326.521 376.752 326.609 376.533 326.787 376.374C326.964 376.206 327.207 376.122 327.515 376.122C327.823 376.122 328.065 376.206 328.243 376.374C328.42 376.533 328.509 376.752 328.509 377.032C328.509 377.303 328.42 377.517 328.243 377.676C328.065 377.835 327.823 377.914 327.515 377.914ZM334.985 387L332.409 379.3H333.697L335.405 384.48C335.508 384.788 335.601 385.087 335.685 385.376C335.769 385.656 335.83 385.875 335.867 386.034C335.914 385.875 335.979 385.656 336.063 385.376C336.147 385.087 336.236 384.788 336.329 384.48L337.995 379.3H339.269L336.693 387H334.985ZM344.374 387.14C343.767 387.14 343.235 387.019 342.778 386.776C342.33 386.533 341.98 386.193 341.728 385.754C341.485 385.306 341.364 384.788 341.364 384.2V382.1C341.364 381.503 341.485 380.985 341.728 380.546C341.98 380.107 342.33 379.767 342.778 379.524C343.235 379.281 343.767 379.16 344.374 379.16C344.98 379.16 345.508 379.281 345.956 379.524C346.413 379.767 346.763 380.107 347.006 380.546C347.258 380.985 347.384 381.503 347.384 382.1V383.458H342.596V384.2C342.596 384.807 342.75 385.273 343.058 385.6C343.366 385.917 343.804 386.076 344.374 386.076C344.859 386.076 345.251 385.992 345.55 385.824C345.848 385.647 346.03 385.385 346.096 385.04H347.356C347.272 385.684 346.954 386.197 346.404 386.58C345.862 386.953 345.186 387.14 344.374 387.14ZM346.152 382.618V382.1C346.152 381.493 345.998 381.027 345.69 380.7C345.391 380.373 344.952 380.21 344.374 380.21C343.804 380.21 343.366 380.373 343.058 380.7C342.75 381.027 342.596 381.493 342.596 382.1V382.506H346.25L346.152 382.618Z" fill="black"/>
<path d="M107.471 106V104.852H110.243V96.83L107.471 98.902V97.502L109.781 95.78H111.503V104.852H113.771V106H107.471ZM118.805 106.14C118.18 106.14 117.634 106.019 117.167 105.776C116.71 105.524 116.355 105.174 116.103 104.726C115.851 104.269 115.725 103.737 115.725 103.13V98.65C115.725 98.034 115.851 97.502 116.103 97.054C116.355 96.606 116.71 96.2607 117.167 96.018C117.634 95.766 118.18 95.64 118.805 95.64C119.44 95.64 119.986 95.766 120.443 96.018C120.901 96.2607 121.255 96.606 121.507 97.054C121.759 97.502 121.885 98.034 121.885 98.65V103.13C121.885 103.737 121.759 104.269 121.507 104.726C121.255 105.174 120.896 105.524 120.429 105.776C119.972 106.019 119.431 106.14 118.805 106.14ZM118.805 105.062C119.365 105.062 119.813 104.885 120.149 104.53C120.495 104.166 120.667 103.699 120.667 103.13V98.65C120.667 98.0807 120.495 97.6187 120.149 97.264C119.813 96.9 119.365 96.718 118.805 96.718C118.245 96.718 117.793 96.9 117.447 97.264C117.111 97.6187 116.943 98.0807 116.943 98.65V103.13C116.943 103.699 117.111 104.166 117.447 104.53C117.793 104.885 118.245 105.062 118.805 105.062ZM118.805 101.716C118.553 101.716 118.348 101.637 118.189 101.478C118.04 101.319 117.965 101.109 117.965 100.848C117.965 100.596 118.04 100.395 118.189 100.246C118.348 100.087 118.553 100.008 118.805 100.008C119.057 100.008 119.258 100.087 119.407 100.246C119.566 100.395 119.645 100.596 119.645 100.848C119.645 101.109 119.566 101.319 119.407 101.478C119.258 101.637 119.057 101.716 118.805 101.716ZM127.2 106.14C126.575 106.14 126.029 106.019 125.562 105.776C125.105 105.524 124.75 105.174 124.498 104.726C124.246 104.269 124.12 103.737 124.12 103.13V98.65C124.12 98.034 124.246 97.502 124.498 97.054C124.75 96.606 125.105 96.2607 125.562 96.018C126.029 95.766 126.575 95.64 127.2 95.64C127.835 95.64 128.381 95.766 128.838 96.018C129.295 96.2607 129.65 96.606 129.902 97.054C130.154 97.502 130.28 98.034 130.28 98.65V103.13C130.28 103.737 130.154 104.269 129.902 104.726C129.65 105.174 129.291 105.524 128.824 105.776C128.367 106.019 127.825 106.14 127.2 106.14ZM127.2 105.062C127.76 105.062 128.208 104.885 128.544 104.53C128.889 104.166 129.062 103.699 129.062 103.13V98.65C129.062 98.0807 128.889 97.6187 128.544 97.264C128.208 96.9 127.76 96.718 127.2 96.718C126.64 96.718 126.187 96.9 125.842 97.264C125.506 97.6187 125.338 98.0807 125.338 98.65V103.13C125.338 103.699 125.506 104.166 125.842 104.53C126.187 104.885 126.64 105.062 127.2 105.062ZM127.2 101.716C126.948 101.716 126.743 101.637 126.584 101.478C126.435 101.319 126.36 101.109 126.36 100.848C126.36 100.596 126.435 100.395 126.584 100.246C126.743 100.087 126.948 100.008 127.2 100.008C127.452 100.008 127.653 100.087 127.802 100.246C127.961 100.395 128.04 100.596 128.04 100.848C128.04 101.109 127.961 101.319 127.802 101.478C127.653 101.637 127.452 101.716 127.2 101.716ZM131.591 106L138.563 95.78H139.599L132.627 106H131.591ZM137.625 106.07C137.037 106.07 136.565 105.902 136.211 105.566C135.856 105.23 135.679 104.768 135.679 104.18V103.27C135.679 102.682 135.856 102.22 136.211 101.884C136.565 101.548 137.037 101.38 137.625 101.38C138.213 101.38 138.684 101.548 139.039 101.884C139.393 102.22 139.571 102.682 139.571 103.27V104.18C139.571 104.768 139.393 105.23 139.039 105.566C138.684 105.902 138.213 106.07 137.625 106.07ZM137.625 105.104C138.231 105.104 138.535 104.796 138.535 104.18V103.27C138.535 102.645 138.231 102.332 137.625 102.332C137.018 102.332 136.715 102.645 136.715 103.27V104.18C136.715 104.796 137.018 105.104 137.625 105.104ZM133.565 100.4C132.977 100.4 132.505 100.232 132.151 99.896C131.796 99.56 131.619 99.098 131.619 98.51V97.6C131.619 97.012 131.796 96.55 132.151 96.214C132.505 95.878 132.977 95.71 133.565 95.71C134.153 95.71 134.624 95.878 134.979 96.214C135.333 96.55 135.511 97.012 135.511 97.6V98.51C135.511 99.098 135.333 99.56 134.979 99.896C134.624 100.232 134.153 100.4 133.565 100.4ZM133.565 99.448C134.171 99.448 134.475 99.1353 134.475 98.51V97.6C134.475 96.9747 134.171 96.662 133.565 96.662C133.266 96.662 133.037 96.7413 132.879 96.9C132.729 97.0493 132.655 97.2827 132.655 97.6V98.51C132.655 98.8273 132.729 99.0653 132.879 99.224C133.037 99.3733 133.266 99.448 133.565 99.448Z" fill="black"/>
<path d="M199.274 306V304.852H202.046V296.83L199.274 298.902V297.502L201.584 295.78H203.306V304.852H205.574V306H199.274ZM208.998 306L212.652 296.928H208.788V298.44H207.528V295.78H213.898V297.012L210.356 306H208.998ZM219.003 306.14C218.648 306.14 218.363 306.037 218.149 305.832C217.943 305.627 217.841 305.351 217.841 305.006C217.841 304.642 217.943 304.353 218.149 304.138C218.363 303.923 218.648 303.816 219.003 303.816C219.357 303.816 219.637 303.923 219.843 304.138C220.057 304.353 220.165 304.642 220.165 305.006C220.165 305.351 220.057 305.627 219.843 305.832C219.637 306.037 219.357 306.14 219.003 306.14ZM227.397 306.14C226.772 306.14 226.226 306.033 225.759 305.818C225.302 305.594 224.947 305.277 224.695 304.866C224.443 304.455 224.317 303.975 224.317 303.424C224.317 302.817 224.481 302.295 224.807 301.856C225.143 301.417 225.671 301.025 226.389 300.68L227.747 300.022C228.158 299.826 228.475 299.569 228.699 299.252C228.923 298.935 229.035 298.585 229.035 298.202C229.035 297.754 228.886 297.399 228.587 297.138C228.298 296.877 227.901 296.746 227.397 296.746C226.893 296.746 226.492 296.881 226.193 297.152C225.904 297.413 225.759 297.768 225.759 298.216C225.759 298.589 225.867 298.935 226.081 299.252C226.305 299.569 226.609 299.821 226.991 300.008L228.349 300.652C229.096 300.997 229.637 301.394 229.973 301.842C230.309 302.281 230.477 302.808 230.477 303.424C230.477 304.255 230.197 304.917 229.637 305.412C229.087 305.897 228.34 306.14 227.397 306.14ZM227.397 305.02C227.967 305.02 228.415 304.875 228.741 304.586C229.077 304.287 229.245 303.891 229.245 303.396C229.245 302.995 229.138 302.631 228.923 302.304C228.709 301.977 228.401 301.716 227.999 301.52L226.655 300.862C225.909 300.498 225.367 300.106 225.031 299.686C224.695 299.266 224.527 298.762 224.527 298.174C224.527 297.651 224.644 297.199 224.877 296.816C225.111 296.433 225.442 296.139 225.871 295.934C226.301 295.729 226.809 295.626 227.397 295.626C227.985 295.626 228.494 295.729 228.923 295.934C229.353 296.139 229.684 296.433 229.917 296.816C230.151 297.199 230.267 297.651 230.267 298.174C230.267 298.762 230.099 299.266 229.763 299.686C229.427 300.097 228.872 300.493 228.097 300.876L226.753 301.534C226.371 301.721 226.072 301.977 225.857 302.304C225.652 302.621 225.549 302.976 225.549 303.368C225.549 303.872 225.713 304.273 226.039 304.572C226.375 304.871 226.828 305.02 227.397 305.02ZM231.788 306L238.76 295.78H239.796L232.824 306H231.788ZM237.822 306.07C237.234 306.07 236.762 305.902 236.408 305.566C236.053 305.23 235.876 304.768 235.876 304.18V303.27C235.876 302.682 236.053 302.22 236.408 301.884C236.762 301.548 237.234 301.38 237.822 301.38C238.41 301.38 238.881 301.548 239.236 301.884C239.59 302.22 239.768 302.682 239.768 303.27V304.18C239.768 304.768 239.59 305.23 239.236 305.566C238.881 305.902 238.41 306.07 237.822 306.07ZM237.822 305.104C238.428 305.104 238.732 304.796 238.732 304.18V303.27C238.732 302.645 238.428 302.332 237.822 302.332C237.215 302.332 236.912 302.645 236.912 303.27V304.18C236.912 304.796 237.215 305.104 237.822 305.104ZM233.762 300.4C233.174 300.4 232.702 300.232 232.348 299.896C231.993 299.56 231.816 299.098 231.816 298.51V297.6C231.816 297.012 231.993 296.55 232.348 296.214C232.702 295.878 233.174 295.71 233.762 295.71C234.35 295.71 234.821 295.878 235.176 296.214C235.53 296.55 235.708 297.012 235.708 297.6V298.51C235.708 299.098 235.53 299.56 235.176 299.896C234.821 300.232 234.35 300.4 233.762 300.4ZM233.762 299.448C234.368 299.448 234.672 299.135 234.672 298.51V297.6C234.672 296.975 234.368 296.662 233.762 296.662C233.463 296.662 233.234 296.741 233.076 296.9C232.926 297.049 232.852 297.283 232.852 297.6V298.51C232.852 298.827 232.926 299.065 233.076 299.224C233.234 299.373 233.463 299.448 233.762 299.448Z" fill="black"/>
<path d="M297.06 268.14C296.444 268.14 295.902 268.019 295.436 267.776C294.978 267.524 294.624 267.179 294.372 266.74C294.12 266.301 293.994 265.788 293.994 265.2H295.254C295.254 265.769 295.412 266.217 295.73 266.544C296.056 266.861 296.504 267.02 297.074 267.02C297.652 267.02 298.1 266.852 298.418 266.516C298.735 266.18 298.894 265.741 298.894 265.2V264.472C298.894 263.893 298.735 263.445 298.418 263.128C298.1 262.811 297.652 262.652 297.074 262.652H296.024V261.392L298.558 258.928H294.414V257.78H299.832V259.04L297.102 261.686V261.532C298.035 261.532 298.777 261.798 299.328 262.33C299.878 262.862 300.154 263.576 300.154 264.472V265.2C300.154 265.788 300.023 266.301 299.762 266.74C299.51 267.179 299.15 267.524 298.684 267.776C298.217 268.019 297.676 268.14 297.06 268.14ZM305.454 268.14C304.838 268.14 304.297 268.019 303.83 267.776C303.373 267.524 303.018 267.179 302.766 266.74C302.514 266.301 302.388 265.788 302.388 265.2H303.648C303.648 265.769 303.807 266.217 304.124 266.544C304.451 266.861 304.899 267.02 305.468 267.02C306.047 267.02 306.495 266.852 306.812 266.516C307.13 266.18 307.288 265.741 307.288 265.2V264.472C307.288 263.893 307.13 263.445 306.812 263.128C306.495 262.811 306.047 262.652 305.468 262.652H304.418V261.392L306.952 258.928H302.808V257.78H308.226V259.04L305.496 261.686V261.532C306.43 261.532 307.172 261.798 307.722 262.33C308.273 262.862 308.548 263.576 308.548 264.472V265.2C308.548 265.788 308.418 266.301 308.156 266.74C307.904 267.179 307.545 267.524 307.078 267.776C306.612 268.019 306.07 268.14 305.454 268.14ZM314.003 268.14C313.648 268.14 313.363 268.037 313.149 267.832C312.943 267.627 312.841 267.351 312.841 267.006C312.841 266.642 312.943 266.353 313.149 266.138C313.363 265.923 313.648 265.816 314.003 265.816C314.357 265.816 314.637 265.923 314.843 266.138C315.057 266.353 315.165 266.642 315.165 267.006C315.165 267.351 315.057 267.627 314.843 267.832C314.637 268.037 314.357 268.14 314.003 268.14ZM322.369 268.14C321.539 268.14 320.857 267.925 320.325 267.496C319.793 267.067 319.481 266.488 319.387 265.76H320.647C320.694 266.161 320.867 266.474 321.165 266.698C321.464 266.913 321.87 267.02 322.383 267.02C322.971 267.02 323.41 266.861 323.699 266.544C323.998 266.227 324.147 265.779 324.147 265.2V264.206C324.147 263.627 323.998 263.179 323.699 262.862C323.41 262.545 322.976 262.386 322.397 262.386C322.033 262.386 321.716 262.484 321.445 262.68C321.175 262.867 320.979 263.119 320.857 263.436H319.597L319.667 257.78H325.043V258.928H320.885L320.843 262.33H321.235L320.843 262.694C320.843 262.255 321.016 261.91 321.361 261.658C321.716 261.406 322.187 261.28 322.775 261.28C323.606 261.271 324.25 261.527 324.707 262.05C325.174 262.563 325.407 263.282 325.407 264.206V265.2C325.407 266.105 325.141 266.824 324.609 267.356C324.077 267.879 323.331 268.14 322.369 268.14ZM326.788 268L333.76 257.78H334.796L327.824 268H326.788ZM332.822 268.07C332.234 268.07 331.762 267.902 331.408 267.566C331.053 267.23 330.876 266.768 330.876 266.18V265.27C330.876 264.682 331.053 264.22 331.408 263.884C331.762 263.548 332.234 263.38 332.822 263.38C333.41 263.38 333.881 263.548 334.236 263.884C334.59 264.22 334.768 264.682 334.768 265.27V266.18C334.768 266.768 334.59 267.23 334.236 267.566C333.881 267.902 333.41 268.07 332.822 268.07ZM332.822 267.104C333.428 267.104 333.732 266.796 333.732 266.18V265.27C333.732 264.645 333.428 264.332 332.822 264.332C332.215 264.332 331.912 264.645 331.912 265.27V266.18C331.912 266.796 332.215 267.104 332.822 267.104ZM328.762 262.4C328.174 262.4 327.702 262.232 327.348 261.896C326.993 261.56 326.816 261.098 326.816 260.51V259.6C326.816 259.012 326.993 258.55 327.348 258.214C327.702 257.878 328.174 257.71 328.762 257.71C329.35 257.71 329.821 257.878 330.176 258.214C330.53 258.55 330.708 259.012 330.708 259.6V260.51C330.708 261.098 330.53 261.56 330.176 261.896C329.821 262.232 329.35 262.4 328.762 262.4ZM328.762 261.448C329.368 261.448 329.672 261.135 329.672 260.51V259.6C329.672 258.975 329.368 258.662 328.762 258.662C328.463 258.662 328.234 258.741 328.076 258.9C327.926 259.049 327.852 259.283 327.852 259.6V260.51C327.852 260.827 327.926 261.065 328.076 261.224C328.234 261.373 328.463 261.448 328.762 261.448Z" fill="black"/>
<path d="M41 362H397" stroke="black" stroke-width="2" stroke-linecap="round"/>
</svg>
